<svg width="24" height="25" viewBox="0 0 24 25" fill="none" xmlns="http://www.w3.org/2000/svg">
<path d="M9 12.5C4 12.5 4 15.1 4 16.6C4 17.3 4.3 17.5 5.5 17.5H12.6C13.8 17.5 14 17.3 14 16.6C14 15.2 14 12.5 9 12.5Z" fill="#2A5885"/>
<path d="M15.6 17.2183C15.6 17.3189 15.5965 17.4127 15.5888 17.5H18.6C19.8 17.5 20 17.3 20 16.6C20 15.2 19.5 12.5 15 12.5C14.69 12.5 14.3992 12.51 14.1264 12.5291C15.5639 13.8833 15.6 15.8518 15.6 17.2183Z" fill="#2A5885"/>
<path d="M7 9C7 10.6667 7.89543 11.5 9 11.5C10.1046 11.5 11 10.6667 11 9C11 7.33333 10.1046 6.5 9 6.5C7.89543 6.5 7 7.33333 7 9Z" fill="#2A5885"/>
<path d="M13 9C13 10.6667 13.8954 11.5 15 11.5C16.1046 11.5 17 10.6667 17 9C17 7.33333 16.1046 6.5 15 6.5C13.8954 6.5 13 7.33333 13 9Z" fill="#2A5885"/>
</svg>
