<svg width="14" height="14" viewBox="0 0 14 14" fill="none" xmlns="http://www.w3.org/2000/svg">
<path d="M9.95856 8.72112L13.6187 12.3813C13.9604 12.723 13.9604 13.277 13.6187 13.6187C13.277 13.9604 12.723 13.9604 12.3813 13.6187L8.72112 9.95856C7.81578 10.6138 6.70299 11 5.5 11C2.46243 11 0 8.53757 0 5.5C0 2.46243 2.46243 0 5.5 0C8.53757 0 11 2.46243 11 5.5C11 6.70299 10.6138 7.81578 9.95856 8.72112ZM5.5 9.25C7.57107 9.25 9.25 7.57107 9.25 5.5C9.25 3.42893 7.57107 1.75 5.5 1.75C3.42893 1.75 1.75 3.42893 1.75 5.5C1.75 7.57107 3.42893 9.25 5.5 9.25Z" fill="#8FADC8"/>
</svg>
