<svg width="24" height="25" viewBox="0 0 24 25" fill="none" xmlns="http://www.w3.org/2000/svg">
<path fill-rule="evenodd" clip-rule="evenodd" d="M18.4974 7.57562C19.3502 7.57562 20.0964 8.34033 19.9898 9.21428V16.8613C19.9898 17.7353 19.2436 18.5 18.3908 18.5H5.59898C4.74619 18.5 4 17.7353 4 16.8613V9.43277C4 8.55882 4.74619 7.57562 5.59898 7.57562H6.98477C7.30456 7.57562 7.51776 7.35714 7.62436 7.13866L8.15735 5.93698C8.26395 5.71849 8.58375 5.5 8.79695 5.5H15.2995C15.6193 5.5 15.8325 5.71849 15.9391 5.93698L16.4721 7.13866C16.5787 7.35714 16.8985 7.57562 17.1116 7.57562H18.4974ZM16 12.5C16 14.6714 14.1714 16.5 12 16.5C9.82857 16.5 8 14.6714 8 12.5C8 10.3286 9.82857 8.5 12 8.5C14.1714 8.5 16 10.3286 16 12.5ZM12 10C13.413 10 14.5 11.087 14.5 12.5C14.5 13.913 13.413 15 12 15C10.587 15 9.5 13.913 9.5 12.5C9.5 11.087 10.587 10 12 10Z" fill="#2A5885"/>
</svg>
